<svg width="65" height="20" viewBox="0 0 65 20" fill="none" xmlns="http://www.w3.org/2000/svg">
<g clip-path="url(#clip0_1175_2966)">
<path d="M45.5341 1.53512C45.5341 1.53512 44.3156 2.01091 42.8985 3.543C41.4813 5.07508 40.656 6.79789 41.2668 7.25607C41.5014 7.43022 42.0425 7.46339 43.0242 6.59265C43.9302 5.82103 44.6414 4.85376 45.1018 3.7669C45.7359 2.25037 45.5341 1.55378 45.5341 1.53719M53.2897 4.29142C51.7151 3.49946 50.5643 2.52921 49.367 1.92902C48.2246 1.35372 47.4859 1.11323 46.5623 1.23451C46.4335 1.25704 46.3063 1.28821 46.1819 1.3278C46.1819 1.3278 46.6574 2.92104 44.7647 5.59752C42.8477 8.31132 41.1083 8.29266 40.6137 7.54735C40.0959 6.76058 40.7648 5.15697 41.8818 3.72958C43.0517 2.23689 45.1061 0.999201 45.1061 0.999201C45.1061 0.999201 44.4509 0.606333 42.8425 1.50091C41.2731 2.36958 38.572 4.44276 36.0654 7.93918C33.5587 11.4356 33.062 13.3595 32.7027 14.874C32.3434 16.3884 32.67 18.0107 34.3819 18.0107C36.0939 18.0107 38.087 15.4493 38.6492 14.5589C39.6943 12.9003 40.3759 10.3565 38.9535 10.7058C38.2529 10.8779 37.6854 11.6388 37.3272 12.3716C37.101 12.8424 36.928 13.336 36.8114 13.8436C36.3144 14.0445 35.8476 14.311 35.4239 14.6356C34.9526 14.978 34.512 15.3595 34.1072 15.7758C34.1072 15.7758 34.1135 14.5651 35.0974 12.6059C36.0812 10.6468 37.8872 9.75218 38.9102 9.66822C39.8317 9.59566 41.0311 10.3627 40.0145 13.1926C38.9979 16.0225 35.9988 19.463 32.8485 19.5055C29.9414 19.5449 28.0392 15.9054 32.0856 9.55419C36.5642 2.5375 41.8174 0.384502 43.523 0.14505C45.2286 -0.094403 45.7835 0.64365 45.7835 0.64365C46.8102 0.23047 47.9191 0.0511319 49.0267 0.119135C51.1096 0.257002 52.7201 1.70305 54.8463 2.71891C54.2936 3.2372 53.7663 3.78141 53.2908 4.29142M62.6474 1.92902C61.2039 2.83708 59.2066 3.66013 57.2875 3.48391C56.8014 3.97629 56.2814 4.54642 55.7605 5.16837C59.0882 5.81417 62.0039 3.79178 63.5542 2.07C64.1193 1.45096 64.6048 0.766173 64.9998 0.0310246C64.294 0.752126 63.5041 1.38918 62.6464 1.92902M58.2153 11.1257C58.2405 11.0826 58.2611 11.0371 58.2766 10.9899C58.2667 10.9151 58.231 10.8459 58.1755 10.7939C58.1199 10.7418 58.0478 10.71 57.9712 10.7038C57.6542 10.6893 57.222 10.7483 56.088 11.9798C55.1474 12.9968 54.3378 14.1234 53.6775 15.3342C53.0287 16.4973 52.7656 17.3639 53.1386 17.5878C53.2598 17.6494 53.4003 17.6634 53.5317 17.6272C53.7843 17.5681 54.0707 17.3359 54.5061 16.8414C54.71 16.6092 54.9362 16.2806 55.2067 15.9168C55.957 14.9154 57.8423 11.7632 58.2153 11.1257ZM46.4365 12.4649C46.6257 11.9798 46.8666 11.0272 46.3657 10.653C45.8278 10.256 44.4561 11.1879 44.4487 12.1436C44.4392 13.1221 45.4146 13.5648 45.6482 13.627C45.7813 13.6622 45.8278 13.657 45.8923 13.5523C46.0992 13.2027 46.281 12.8393 46.4365 12.4649ZM45.3988 14.2448C45.0589 14.0908 44.7418 13.8924 44.4561 13.6549C44.1697 13.4193 43.9304 13.1335 43.7502 12.8122C43.7312 12.7811 43.7122 12.8049 43.691 12.8329C43.6699 12.8609 43.5854 12.9366 42.8541 13.9877C42.1228 15.0388 40.9994 17.2167 42.0161 17.5878C42.667 17.8252 43.7502 16.7067 44.341 15.9655C44.7434 15.4482 45.1082 14.9037 45.4326 14.336C45.4633 14.2728 45.4326 14.2582 45.3998 14.2448M56.9314 16.7606C56.6555 17.1939 56.3406 18.0252 57.2484 17.508C58.3591 16.8787 59.941 14.5246 59.941 14.5246H60.6586C60.0057 15.5094 59.2787 16.4449 58.4838 17.3234C57.3583 18.5466 55.9855 19.6579 55.0186 19.548C53.8889 19.4184 54.2429 17.9641 54.2429 17.9641C54.2429 17.9641 52.6271 19.6516 51.509 19.5304C49.9989 19.3666 50.4597 17.5359 50.4597 17.5359C50.4597 17.5359 48.7519 19.5915 47.5884 19.5283C45.7644 19.4246 46.2231 17.2478 46.7303 15.7147C47.0019 14.8947 47.2534 14.251 47.2534 14.251C47.2534 14.251 47.0727 14.2976 46.6838 14.3546C46.4809 14.3826 46.1111 14.4034 46.1111 14.4034C46.1111 14.4034 45.3512 15.7178 44.7436 16.5076C44.1359 17.2975 41.5532 20.0207 40.0335 19.4754C38.628 18.9716 39.093 16.8611 39.911 15.1839C41.1051 12.7386 44.4635 9.22559 46.4006 9.68999C48.4085 10.1679 46.446 13.7617 46.446 13.7617C46.446 13.7617 46.446 13.7752 46.4672 13.7845C46.5073 13.799 46.612 13.8104 46.854 13.7638C47.1047 13.7136 47.3505 13.6418 47.5884 13.5492C47.5884 13.5492 49.6069 9.40285 51.8366 6.69009C54.0664 3.97733 58.5144 -0.69459 60.2602 0.435295C60.6829 0.713102 60.4927 1.66988 59.9178 2.83086C59.6589 2.91336 59.3957 2.98256 59.1294 3.03818C59.5141 2.35299 59.7688 1.77561 59.8449 1.37237C60.108 -0.0290978 56.7718 2.92726 54.3877 6.10338C52.9517 8.01812 51.6758 10.0437 50.5727 12.1602C51.0034 11.9025 51.4145 11.6146 51.8028 11.2988C52.8663 10.4339 53.8769 9.50831 54.8294 8.52693C55.7467 7.6058 56.607 6.63175 57.4058 5.60996C57.6596 5.59792 57.9126 5.57231 58.1636 5.53325C57.2926 6.69281 56.3429 7.7934 55.3208 8.82754C54.3697 9.77084 53.3404 10.7857 52.4464 11.5227C51.6478 12.1888 50.8055 12.8027 49.9249 13.3606C49.9249 13.3606 47.8399 17.4852 48.9738 17.7495C49.6407 17.907 50.9574 15.9178 50.9574 15.9178C50.9574 15.9178 52.6757 13.346 53.7114 12.1861C55.1243 10.6105 56.3406 9.69828 57.5559 9.68169C58.2639 9.66925 58.6814 10.4073 58.6814 10.4073L59.0143 9.90145H61.0644C61.0644 9.90145 57.2357 16.2744 56.9292 16.7544M62.6464 1.92902C61.2028 2.83708 59.2055 3.66013 57.2864 3.48391C56.8003 3.97629 56.2804 4.54642 55.7594 5.16837C59.0872 5.81417 62.0028 3.79178 63.5531 2.07C64.1186 1.45102 64.6045 0.766229 64.9998 0.0310246C64.294 0.752126 63.5041 1.38918 62.6464 1.92902ZM33.8546 5.05538H31.9049L30.8026 6.80204H32.7524L33.8546 5.05538ZM24.6226 11.1039C25.4522 9.98852 27.7412 6.07954 27.7412 6.07954C27.7315 6.00487 27.696 5.93572 27.6406 5.88364C27.5852 5.83157 27.5133 5.79972 27.4368 5.79344C27.1198 5.77893 26.5914 5.88362 25.542 7.1721C24.4926 8.46059 23.6779 9.48578 23.084 10.5524C22.433 11.7165 22.1487 12.5375 22.5228 12.7604C22.6442 12.82 22.7837 12.834 22.9149 12.7998C23.1579 12.7396 23.476 12.5002 23.9125 12.0078C24.1175 11.7777 24.35 11.4677 24.6226 11.1039ZM14.1606 5.81728C13.6216 5.41819 12.251 6.35216 12.2436 7.30583C12.2351 8.2854 13.4768 8.58498 13.6375 8.59224C13.6847 8.59609 13.7321 8.58636 13.7738 8.56425C13.8025 8.54785 13.8253 8.52326 13.8393 8.49376C13.9853 8.21235 14.1165 7.9238 14.2324 7.62924C14.4216 7.14412 14.6615 6.19149 14.1606 5.81728ZM13.3479 9.18931C12.9763 9.07543 12.6211 8.91518 12.2911 8.71248C11.9714 8.508 11.7113 8.22543 11.5366 7.89254C11.5176 7.86144 11.4965 7.88528 11.4774 7.91327C11.4584 7.94126 11.3485 8.07601 10.6151 9.13126C9.8817 10.1865 8.79534 12.3447 9.81301 12.7158C10.4619 12.9573 11.5577 11.8295 12.1527 11.0915C12.5979 10.5115 13.0093 9.90719 13.3849 9.28157C13.4092 9.21834 13.3849 9.20382 13.349 9.19242M29.2724 9.83925H29.9868C29.9868 9.83925 26.4075 14.9186 24.3859 14.6822C23.2573 14.5526 23.5923 13.1864 23.5923 13.1864C23.5923 13.1864 22.0071 15.0067 20.5509 14.6376C19.2299 14.3049 20.0827 12.1498 20.0827 12.1498C19.9327 12.2089 17.0741 15.3695 15.0652 14.6117C12.9633 13.8156 14.0549 11.1692 14.4544 10.3731C14.7936 9.70242 15.1687 9.04937 15.1687 9.04937C15.1687 9.04937 14.8464 9.13852 14.6404 9.18413C14.4343 9.22974 14.1363 9.28779 14.1363 9.28779C14.1363 9.28779 13.1418 10.8727 12.5342 11.6637C11.9266 12.4546 9.3438 15.1725 7.82205 14.6314C6.3003 14.0903 6.67756 12.0016 7.53249 10.343C8.91898 7.65308 12.2087 4.34739 14.1902 4.8491C16.1917 5.34978 14.5347 8.53419 14.5347 8.53419C14.5347 8.53419 14.9331 8.58498 15.8873 7.94644C17.2611 7.02698 19.0746 4.55367 21.0381 4.84392C21.9638 4.98075 22.8261 5.9085 21.6468 7.67071C21.2705 8.23668 20.6397 8.74254 20.1567 8.24187C19.8555 7.93089 20.1187 7.36387 20.4346 6.97619C20.5576 6.81815 20.7183 6.69219 20.9026 6.60941C21.0869 6.52662 21.2891 6.48954 21.4914 6.50143C21.4914 6.50143 21.8158 5.77582 20.9905 5.78618C20.3226 5.79862 18.6318 7.32552 17.6775 8.86797C16.8025 10.284 15.4763 12.6961 16.8078 13.2217C18.0284 13.7047 20.3512 11.0002 21.4269 9.58322C22.5027 8.1662 24.9545 4.95484 27.0109 4.8263C27.719 4.78069 28.1406 5.41405 28.1406 5.41405L28.3784 5.04502H30.4349C30.4349 5.04502 26.5618 11.3848 26.2596 11.8648C26.0218 12.24 25.7058 13.0838 26.5766 12.6111C27.4474 12.1384 29.2724 9.83925 29.2724 9.83925ZM28.1533 19.9979C26.6391 18.9697 24.826 18.4507 22.9857 18.5186C22.4876 18.532 21.9997 18.6603 21.5616 18.8931C21.1235 19.126 20.7476 19.4569 20.4642 19.859C19.6801 18.5166 18.1298 17.6925 15.7331 17.7111C11.86 17.7547 8.01861 19.5065 4.9751 19.5044C2.05841 19.5044 -0.0688739 17.7059 -0.000183638 14.5122C0.127686 8.90736 4.95608 3.86019 8.55968 1.58902C10.6373 0.283953 12.3746 -0.103732 13.5107 0.0216953C14.3392 0.111879 15.3357 1.05103 14.7069 2.43488C13.7833 4.45727 12.5078 4.29142 12.5553 3.32428C12.5818 2.69507 13.0087 2.29909 13.33 2.08037C13.5339 1.9425 13.8943 1.90311 14.0824 1.89896C14.2652 1.74762 14.3994 0.64054 12.9199 1.00438C11.4404 1.36823 9.64393 2.79872 7.9383 4.64697C6.23266 6.49521 3.57699 9.98852 2.92074 13.657C2.61427 15.3581 2.81506 18.4606 6.92696 18.4253C10.4143 18.3974 15.5545 16.1448 20.2782 16.1915C22.1117 16.2091 23.7075 16.6942 24.9513 17.4468C26.1729 18.1849 27.6376 19.2629 28.1575 19.9989" fill="#E61D2B"/>
</g>
<defs>
<clipPath id="clip0_1175_2966">
<rect width="65" height="20" fill="white"/>
</clipPath>
</defs>
</svg>
