<?xml version="1.0" encoding="UTF-8"?>
<svg id="Layer_2" data-name="Layer 2" xmlns="http://www.w3.org/2000/svg" viewBox="0 0 1614.68 345.14">
  <defs>
    <style>
      .cls-1 {
        fill: #b47cff;
      }

      .cls-2 {
        fill: #fec100;
      }

      .cls-3 {
        fill: #ff87d3;
      }

      .cls-4 {
        fill: #a1e335;
      }

      .cls-5 {
        fill: #0a1b04;
      }
    </style>
  </defs>
  <g id="Layer_1-2" data-name="Layer 1">
    <g>
      <g>
        <g>
          <path class="cls-5" d="M549.18,168.33c-10.71-2.19-24.45-3.68-41.21-4.45-11.36-.51-20.26-1.22-26.7-2.13-6.45-.9-11.8-2.84-16.06-5.8-4.26-2.96-6.39-7.41-6.39-13.35,0-10.06,3.61-17.73,10.84-23.03,7.22-5.28,17.8-7.93,31.73-7.93s24.05,2.71,31.15,8.13c7.09,5.42,10.64,13.29,10.64,23.6h44.11c0-21.41-7.23-37.66-21.67-48.76-14.45-11.09-35.86-16.64-64.24-16.64s-50.25,5.29-64.82,15.87c-14.58,10.58-21.86,26.19-21.86,46.82,0,15.22,3.8,26.7,11.42,34.44,7.61,7.74,16.64,12.84,27.09,15.29,10.45,2.45,23.8,4.32,40.05,5.61,11.61.77,20.64,1.68,27.09,2.71,6.45,1.04,11.86,3.16,16.25,6.39,4.38,3.23,6.58,8.07,6.58,14.51,0,9.55-3.55,16.77-10.64,21.67-7.1,4.9-17.61,7.35-31.54,7.35s-24.44-2.71-31.54-8.13c-7.1-5.42-10.64-13.28-10.64-23.6h-44.11c0,21.42,7.29,37.67,21.86,48.76,14.57,11.09,36.05,16.64,64.43,16.64s50.69-5.29,65.4-15.87c14.71-10.58,22.06-26.18,22.06-46.82,0-15.99-3.87-27.99-11.61-35.99-7.74-7.99-16.97-13.09-27.67-15.28Z"/>
          <path class="cls-5" d="M779.62,89.58c-12.13-7.74-29.28-11.61-51.47-11.61-19.61,0-35.67,4.32-48.18,12.96-12.52,8.65-20.57,21.22-24.18,37.73V10.14h-44.12v266.74h44.12v-96.35c0-21.41,4.9-38.31,14.7-50.69,9.8-12.38,24.51-18.58,44.11-18.58,14.19,0,25.15,2.71,32.89,8.13,7.74,5.42,13.09,13.16,16.06,23.22,2.96,10.06,4.45,23.87,4.45,41.4v92.87h43.73v-92.87c0-25.54-2.32-45.72-6.97-60.56-4.64-14.83-13.03-26.12-25.15-33.86Z"/>
          <path class="cls-5" d="M980.46,129.87c-2.68-9.66-6.29-18.13-10.83-25.39-11.09-17.67-28.38-26.51-51.86-26.51-19.35,0-35.6,4.13-48.76,12.38-13.16,8.26-23.09,19.99-29.8,35.22-6.71,15.22-10.06,33.15-10.06,53.79s3.29,38.7,9.87,54.18c6.58,15.48,16.51,27.48,29.8,35.99,13.28,8.51,29.47,12.77,48.56,12.77,23.73,0,41.15-9.1,52.24-27.28,4.55-7.46,8.15-16.15,10.83-26.02v47.88h44.12V83.39h-44.12v46.47ZM966.92,223.67c-9.04,9.68-22.19,14.51-39.47,14.51s-31.67-4.9-40.83-14.7c-9.16-9.8-13.74-24.25-13.74-43.34s4.58-33.53,13.74-43.34c9.16-9.8,22.64-14.7,40.44-14.7s30.82,4.97,39.86,14.9c9.03,9.93,13.54,24.45,13.54,43.53s-4.52,33.47-13.54,43.14Z"/>
          <rect class="cls-5" x="1051.66" y="10.14" width="43.73" height="266.74"/>
          <rect class="cls-5" x="1124.4" y="83.39" width="44.12" height="193.48"/>
          <path class="cls-5" d="M1292.34,77.97c-32.25,0-56.76,8.65-73.52,25.93-16.77,17.29-25.15,42.83-25.15,76.62s8.38,58.88,25.15,76.04c16.77,17.16,41.41,25.74,73.91,25.74s56.75-8.58,73.52-25.74c16.77-17.15,25.15-42.5,25.15-76.04s-8.39-59.02-25.15-76.43c-16.77-17.41-41.41-26.12-73.91-26.12ZM1333.17,226.38c-9.16,10.45-22.77,15.67-40.83,15.67s-31.67-5.22-40.83-15.67c-9.16-10.45-13.74-25.73-13.74-45.85s4.58-35.86,13.74-46.44c9.16-10.58,22.77-15.87,40.83-15.87s31.66,5.29,40.83,15.87c9.15,10.58,13.74,26.06,13.74,46.44s-4.58,35.41-13.74,45.85Z"/>
          <path class="cls-5" d="M1607.72,123.44c-4.64-14.83-13.03-26.12-25.15-33.86-12.13-7.74-29.28-11.61-51.47-11.61-19.61,0-35.67,4.32-48.18,12.96-12.52,8.65-20.57,21.22-24.18,37.73l2.71-45.27h-46.82v193.48h44.12v-96.35c0-21.41,4.9-38.31,14.7-50.69,9.8-12.38,24.51-18.58,44.11-18.58,14.19,0,25.15,2.71,32.89,8.13,7.74,5.42,13.09,13.16,16.06,23.22,2.96,10.06,4.45,23.87,4.45,41.4v92.87h43.73v-92.87c0-25.54-2.32-45.72-6.96-60.56Z"/>
        </g>
        <path class="cls-5" d="M1181.54,35.08s0,0,0,.01c0,.8-.55,1.49-1.33,1.71-15.48,4.35-27.68,16.55-32.03,32.03-.22.77-.91,1.33-1.71,1.33,0,0,0,0-.01,0s0,0-.01,0c-.8,0-1.49-.55-1.71-1.33-4.35-15.48-16.55-27.68-32.03-32.03-.77-.22-1.33-.91-1.33-1.71,0,0,0,0,0-.01s0,0,0-.01c0-.8.55-1.49,1.33-1.71,15.48-4.35,27.68-16.55,32.03-32.03.22-.77.91-1.33,1.71-1.33,0,0,0,0,.01,0s0,0,.01,0c.8,0,1.49.55,1.71,1.33,4.35,15.48,16.55,27.68,32.03,32.03.77.22,1.33.91,1.33,1.71,0,0,0,0,0,.01Z"/>
      </g>
      <g>
        <path class="cls-1" d="M0,164.45c43.96-.09,83.74-17.94,112.55-46.77,28.82-28.81,46.68-68.59,46.77-112.55-42.78,2.65-81.28,21.08-109.77,49.55C21.08,83.17,2.65,121.67,0,164.45Z"/>
        <path class="cls-4" d="M340,164.45c-2.65-42.78-21.08-81.28-49.55-109.77-28.48-28.47-66.98-46.9-109.75-49.55.09,43.96,17.94,83.74,46.75,112.55,28.82,28.82,68.61,46.68,112.55,46.77Z"/>
        <path class="cls-2" d="M180.7,345.14c42.77-2.65,81.27-21.08,109.75-49.55,28.47-28.48,46.9-66.98,49.55-109.75-43.94.09-83.73,17.94-112.55,46.75-28.81,28.82-46.67,68.61-46.75,112.55Z"/>
        <path class="cls-3" d="M0,185.83c5.29,85.55,73.75,154.01,159.32,159.3-.09-43.94-17.94-83.73-46.77-112.55-28.81-28.81-68.59-46.67-112.55-46.75Z"/>
      </g>
    </g>
  </g>
</svg>