<svg width="24" height="24" viewBox="0 0 24 24" fill="none" xmlns="http://www.w3.org/2000/svg">
<path d="M0 11.0786C3.04922 11.0724 5.80851 9.83114 7.80687 7.82639C9.80593 5.82303 11.0448 3.05685 11.051 0C8.08363 0.184273 5.41313 1.46584 3.43697 3.44556C1.46218 5.42667 0.183814 8.10384 0 11.0786Z" fill="#B47CFF"/>
<path d="M23.5836 11.0786C23.3998 8.10384 22.1214 5.42667 20.1467 3.44556C18.1712 1.46584 15.5007 0.184273 12.534 0C12.5402 3.05685 13.7784 5.82303 15.7767 7.82639C17.7758 9.83044 20.5358 11.0724 23.5836 11.0786Z" fill="#A1E335"/>
<path d="M12.534 23.6433C15.5007 23.459 18.1712 22.1774 20.1467 20.1977C22.1214 18.2173 23.3998 15.5401 23.5836 12.566C20.5358 12.5723 17.7758 13.8135 15.7767 15.8169C13.7784 17.821 12.5395 20.5878 12.534 23.6433Z" fill="#FEC100"/>
<path d="M0 12.5653C0.366933 18.5142 5.11556 23.2747 11.051 23.6426C11.0448 20.5871 9.80662 17.8202 7.80687 15.8162C5.80851 13.8128 3.04922 12.5709 0 12.5653Z" fill="#FF87D3"/>
</svg>
